<svg width="50" height="50" viewBox="0 0 50 50" xmlns="http://www.w3.org/2000/svg">
    <g fill="none" fill-rule="evenodd">
        <path d="M0 0h50v50H0z"/>
        <path d="M25.685 14.7 11.979 1 4.935 8.066c-6.136 6.11-2.238 18.997 7.853 29.193 10.01 10.114 22.968 13.937 29.126 7.758L49 37.984 35.291 24.282l-5.468 5.466a2.382 2.382 0 0 1-3.35-.006l-6.256-6.253a2.379 2.379 0 0 1 .01-3.334l5.458-5.455zM11.983 6.715 19.97 14.7l-2.61 2.61a6.422 6.422 0 0 0-.011 9.023l6.272 6.27.296.276a6.427 6.427 0 0 0 8.756-.27l2.616-2.617 7.985 7.981-4.216 4.186c-4.117 4.132-14.756.994-23.4-7.74-8.732-8.823-11.943-19.44-7.867-23.498l4.19-4.206z" fill="#4580F3" fill-rule="nonzero"/>
    </g>
</svg>
